<?xml version="1.0" standalone="no"?>
<!DOCTYPE svg PUBLIC "-//W3C//DTD SVG 20010904//EN"
 "http://www.w3.org/TR/2001/REC-SVG-20010904/DTD/svg10.dtd">
<svg version="1.0" xmlns="http://www.w3.org/2000/svg"
 width="480.000000pt" height="190.000000pt" viewBox="0 0 480.000000 190.000000"
 preserveAspectRatio="xMidYMid meet">

<g transform="translate(0.000000,190.000000) scale(0.100000,-0.100000)"
fill="#000000" stroke="none">
<path d="M1821 1478 l0 -353 40 79 c122 246 370 465 664 588 l90 37 -397 1
-398 0 1 -352z"/>
<path d="M2655 1794 c-271 -60 -560 -283 -660 -508 -78 -177 35 -347 229 -346
88 0 226 44 348 109 37 20 69 33 71 31 11 -12 137 -241 137 -248 0 -14 -140
-90 -236 -129 -49 -19 -91 -37 -93 -39 -2 -2 118 -4 268 -4 l272 0 -3 518 c-3
500 -4 518 -23 552 -12 20 -38 43 -60 53 -53 26 -163 30 -250 11z"/>
<path d="M2610 1035 c0 -9 5 -15 11 -13 6 2 11 8 11 13 0 5 -5 11 -11 13 -6 2
-11 -4 -11 -13z"/>
<path d="M2570 1015 c0 -9 5 -15 11 -13 6 2 11 8 11 13 0 5 -5 11 -11 13 -6 2
-11 -4 -11 -13z"/>
<path d="M2632 999 c2 -6 8 -10 13 -10 5 0 11 4 13 10 2 6 -4 11 -13 11 -9 0
-15 -5 -13 -11z"/>
<path d="M2590 975 c0 -8 7 -15 15 -15 8 0 15 7 15 15 0 8 -7 15 -15 15 -8 0
-15 -7 -15 -15z"/>
<path d="M2652 959 c2 -6 8 -10 13 -10 5 0 11 4 13 10 2 6 -4 11 -13 11 -9 0
-15 -5 -13 -11z"/>
<path d="M2617 944 c-8 -8 1 -24 14 -24 5 0 9 7 9 15 0 15 -12 20 -23 9z"/>
<path d="M2672 919 c2 -6 8 -10 13 -10 5 0 11 4 13 10 2 6 -4 11 -13 11 -9 0
-15 -5 -13 -11z"/>
<path d="M2640 895 c0 -9 5 -15 11 -13 6 2 11 8 11 13 0 5 -5 11 -11 13 -6 2
-11 -4 -11 -13z"/>
<path d="M2706 893 c-11 -11 -6 -23 9 -23 8 0 15 4 15 9 0 13 -16 22 -24 14z"/>
<path d="M2662 859 c2 -6 8 -10 13 -10 5 0 11 4 13 10 2 6 -4 11 -13 11 -9 0
-15 -5 -13 -11z"/>
<path d="M2726 853 c-11 -11 -6 -23 9 -23 8 0 15 4 15 9 0 13 -16 22 -24 14z"/>
<path d="M2682 819 c2 -6 8 -10 13 -10 5 0 11 4 13 10 2 6 -4 11 -13 11 -9 0
-15 -5 -13 -11z"/>
<path d="M215 429 c-50 -15 -55 -31 -55 -170 0 -70 3 -135 6 -144 14 -35 58
-45 199 -45 l135 0 0 24 c0 24 -1 24 -117 28 -65 2 -124 7 -130 11 -18 11 -18
218 -1 235 8 8 52 12 131 12 l118 0 -3 28 -3 27 -125 2 c-69 1 -138 -3 -155
-8z"/>
<path d="M580 256 l0 -186 40 0 40 0 0 75 0 75 110 0 110 0 0 -75 0 -75 35 0
35 0 0 185 0 185 -35 0 -34 0 -3 -77 -3 -78 -107 -3 -107 -3 -3 78 -3 78 -37
3 -38 3 0 -185z"/>
<path d="M1092 425 c-18 -8 -37 -26 -42 -40 -14 -36 -13 -238 1 -269 19 -40
61 -51 204 -51 l130 0 3 32 3 33 -118 0 c-131 0 -143 5 -143 57 l0 33 120 0
120 0 0 30 0 30 -121 0 -120 0 3 42 c4 52 13 56 156 57 l102 1 0 30 0 30 -132
0 c-92 -1 -143 -5 -166 -15z"/>
<path d="M1502 425 c-44 -19 -52 -47 -52 -181 0 -114 0 -116 29 -145 l29 -29
141 0 141 0 0 24 c0 24 -1 24 -113 28 -78 2 -119 7 -130 17 -14 11 -17 33 -17
115 0 66 4 106 12 114 8 8 52 12 130 12 l118 0 0 30 0 30 -127 0 c-88 -1 -138
-5 -161 -15z"/>
<path d="M1870 255 l0 -185 40 0 40 0 0 86 0 86 94 -86 c91 -84 95 -86 142
-86 l49 1 -30 26 c-16 14 -61 55 -99 92 l-69 66 98 92 98 93 -49 0 c-47 -1
-52 -4 -139 -85 l-90 -84 -3 84 -3 85 -39 0 -40 0 0 -185z"/>
<path d="M2470 284 l0 -156 29 -29 c29 -29 30 -29 151 -29 126 0 171 11 184
45 3 9 6 86 6 171 l0 155 -37 -3 -38 -3 -5 -149 -5 -150 -35 -9 c-46 -12 -150
-2 -161 15 -5 7 -9 77 -9 156 l0 142 -40 0 -40 0 0 -156z"/>
<path d="M2920 256 l0 -186 40 0 39 0 3 65 3 65 112 3 c96 2 116 5 140 23 25
19 28 28 31 90 3 64 1 72 -23 94 -26 24 -33 25 -186 28 l-159 4 0 -186z m274
118 c11 -4 16 -19 16 -50 0 -56 -15 -64 -124 -64 l-86 0 0 60 0 60 89 0 c49 0
96 -3 105 -6z"/>
<path d="M3502 424 c-21 -15 -22 -21 -22 -185 l0 -169 35 0 35 0 0 135 c0 74
3 135 8 135 4 0 47 -61 96 -135 96 -145 116 -161 165 -134 l26 15 3 172 2 172
-37 0 -38 0 3 -135 c1 -75 -1 -135 -6 -135 -5 0 -47 57 -93 126 -104 157 -126
174 -177 138z"/>
<path d="M4000 433 c-8 -3 -25 -15 -37 -26 -22 -19 -23 -28 -23 -152 0 -149 7
-168 68 -185 20 -5 90 -10 155 -10 l117 0 0 35 0 35 -109 0 c-60 0 -116 3
-125 6 -11 4 -16 19 -16 45 l0 39 120 0 120 0 0 30 0 30 -121 0 -120 0 3 43 3
42 123 3 122 3 0 34 0 35 -132 -1 c-73 0 -140 -3 -148 -6z"/>
<path d="M4310 410 l0 -30 65 0 65 0 0 -155 0 -155 40 0 40 0 0 155 0 155 65
0 65 0 0 30 0 30 -170 0 -170 0 0 -30z"/>
<path d="M2230 220 c0 -19 7 -20 105 -20 98 0 105 1 105 20 0 19 -7 20 -105
20 -98 0 -105 -1 -105 -20z"/>
</g>
</svg>
